<svg xmlns="http://www.w3.org/2000/svg" width="1200" height="300" viewBox="0 0 1200 300" role="img" aria-label="Nightshift: Claude Code agents work your kanban overnight. A card moves from Backlog through Grill, Plan and Implement to Done while an agent runs.">
<defs>
<linearGradient id="bg" x1="0" y1="0" x2="1" y2="1"><stop offset="0" stop-color="#0b1020"/><stop offset="1" stop-color="#131a33"/></linearGradient>
<radialGradient id="glow" cx="0.2" cy="0.4" r="0.6"><stop offset="0" stop-color="#5e6ad2" stop-opacity="0.35"/><stop offset="1" stop-color="#5e6ad2" stop-opacity="0"/></radialGradient>
<radialGradient id="glow2" cx="0.85" cy="0.9" r="0.5"><stop offset="0" stop-color="#7f89e0" stop-opacity="0.18"/><stop offset="1" stop-color="#7f89e0" stop-opacity="0"/></radialGradient>
<linearGradient id="flow" x1="0" y1="0" x2="1" y2="0"><stop offset="0" stop-color="#f5a524"/><stop offset="0.5" stop-color="#2dd4bf"/><stop offset="1" stop-color="#4ade80"/></linearGradient>
<pattern id="grid" width="30" height="30" patternUnits="userSpaceOnUse"><path d="M30 0H0V30" fill="none" stroke="#8b93d9" stroke-opacity="0.07" stroke-width="1"/></pattern>
<filter id="blur" x="-50%" y="-50%" width="200%" height="200%"><feGaussianBlur stdDeviation="4"/></filter>
</defs>
<rect width="1200" height="300" fill="url(#bg)"/>
<rect width="1200" height="300" fill="url(#grid)"/>
<rect width="1200" height="300" fill="url(#glow)"/>
<rect width="1200" height="300" fill="url(#glow2)"/>
<g fill="#ffffff">
<circle cx="221" cy="210" r="1" opacity="0.3"/>
<circle cx="194" cy="42" r="0.8" opacity="0.5"/>
<circle cx="130" cy="121" r="1.3" opacity="0.7"/>
<circle cx="363" cy="62" r="1" opacity="0.3"><animate attributeName="opacity" values="0.3;0.1;0.3" dur="5s" repeatCount="indefinite"/></circle>
<circle cx="62" cy="141" r="1" opacity="0.3"/>
<circle cx="347" cy="166" r="1" opacity="0.7"/>
<circle cx="374" cy="134" r="1" opacity="0.5"><animate attributeName="opacity" values="0.5;0.1;0.5" dur="3s" repeatCount="indefinite"/></circle>
<circle cx="192" cy="288" r="1" opacity="0.3"/>
<circle cx="541" cy="30" r="0.8" opacity="0.3"/>
<circle cx="1072" cy="281" r="1.3" opacity="0.5"/>
<circle cx="410" cy="42" r="1" opacity="0.3"><animate attributeName="opacity" values="0.3;0.1;0.3" dur="3s" repeatCount="indefinite"/></circle>
<circle cx="386" cy="190" r="1" opacity="0.7"/>
<circle cx="136" cy="125" r="1" opacity="0.7"/>
<circle cx="62" cy="29" r="1" opacity="0.7"/>
</g>
<rect x="48" y="96" width="68" height="68" rx="16" fill="#0f1530" stroke="#5e6ad2" stroke-opacity="0.6" stroke-width="1.5"/>
<g id="nightshift-logo" transform="translate(54 102) scale(3.5)">
<path d="M12.5 2.5A7 7 0 1 0 12.5 13.5A5.5 5.5 0 1 1 12.5 2.5Z" fill="#5e6ad2"/>
<path d="M10 4H13A1 1 0 0 1 14 5V5A1 1 0 0 1 13 6H10A1 1 0 0 1 9 5V5A1 1 0 0 1 10 4Z" fill="#7f89e0"/>
<path d="M10 7H13A1 1 0 0 1 14 8V8A1 1 0 0 1 13 9H10A1 1 0 0 1 9 8V8A1 1 0 0 1 10 7Z" fill="#7f89e0"/>
<path d="M10 10H13A1 1 0 0 1 14 11V11A1 1 0 0 1 13 12H10A1 1 0 0 1 9 11V11A1 1 0 0 1 10 10Z" fill="#7f89e0"/>
</g>
<text x="136" y="145" font-family="-apple-system, 'Segoe UI', Helvetica, Arial, sans-serif" font-size="46" font-weight="700" fill="#f1f3fb" letter-spacing="-0.5">Nightshift</text>
<text x="48" y="200" font-family="-apple-system, 'Segoe UI', Helvetica, Arial, sans-serif" font-size="15" fill="#8d95ad">Claude Code agents work your kanban overnight.</text>
<text x="48" y="224" font-family="ui-monospace, SFMono-Regular, Menlo, monospace" font-size="12" fill="#5e6ad2">backlog -&gt; grill -&gt; plan -&gt; implement -&gt; done</text>
<path d="M532.0 96 H1098.0" stroke="url(#flow)" stroke-width="2" stroke-linecap="round" stroke-dasharray="6 10" opacity="0.5" fill="none"><animate attributeName="stroke-dashoffset" from="32" to="0" dur="2s" repeatCount="indefinite"/></path>
<rect x="470.0" y="40" width="124" height="220" rx="12" fill="#ffffff" fill-opacity="0.04" stroke="#8b93a7" stroke-opacity="0.35"/>
<rect x="480.0" y="52" width="6" height="6" rx="2" fill="#8b93a7"/>
<text x="492.0" y="59" font-family="ui-monospace, SFMono-Regular, Menlo, monospace" font-size="10" font-weight="700" letter-spacing="1" fill="#8b93a7">BACKLOG</text>
<rect x="480.0" y="122" width="104" height="32" rx="7" fill="#1a2142" stroke="#8b93a7" stroke-opacity="0.45"/>
<rect x="488.0" y="131" width="50" height="4" rx="2" fill="#8b93a7" fill-opacity="0.55"/><rect x="488.0" y="141" width="34" height="4" rx="2" fill="#8d95ad" fill-opacity="0.45"/>
<rect x="480.0" y="164" width="104" height="32" rx="7" fill="#1a2142" stroke="#8b93a7" stroke-opacity="0.45"/>
<rect x="488.0" y="173" width="62" height="4" rx="2" fill="#8b93a7" fill-opacity="0.55"/><rect x="488.0" y="183" width="34" height="4" rx="2" fill="#8d95ad" fill-opacity="0.45"/>
<rect x="611.5" y="40" width="124" height="220" rx="12" fill="#ffffff" fill-opacity="0.04" stroke="#f5a524" stroke-opacity="0.35"/>
<rect x="621.5" y="52" width="6" height="6" rx="2" fill="#f5a524"/>
<text x="633.5" y="59" font-family="ui-monospace, SFMono-Regular, Menlo, monospace" font-size="10" font-weight="700" letter-spacing="1" fill="#f5a524">GRILL</text>
<rect x="621.5" y="80" width="104" height="32" rx="7" fill="#1a2142" stroke="#f5a524" stroke-opacity="0.45"/>
<rect x="629.5" y="89" width="62" height="4" rx="2" fill="#f5a524" fill-opacity="0.55"/><rect x="629.5" y="99" width="34" height="4" rx="2" fill="#8d95ad" fill-opacity="0.45"/>
<rect x="753.0" y="40" width="124" height="220" rx="12" fill="#ffffff" fill-opacity="0.04" stroke="#2dd4bf" stroke-opacity="0.35"/>
<rect x="763.0" y="52" width="6" height="6" rx="2" fill="#2dd4bf"/>
<text x="775.0" y="59" font-family="ui-monospace, SFMono-Regular, Menlo, monospace" font-size="10" font-weight="700" letter-spacing="1" fill="#2dd4bf">PLAN</text>
<rect x="763.0" y="80" width="104" height="32" rx="7" fill="#1a2142" stroke="#2dd4bf" stroke-opacity="0.45"/>
<rect x="771.0" y="89" width="62" height="4" rx="2" fill="#2dd4bf" fill-opacity="0.55"/><rect x="771.0" y="99" width="34" height="4" rx="2" fill="#8d95ad" fill-opacity="0.45"/>
<rect x="894.5" y="40" width="124" height="220" rx="12" fill="#ffffff" fill-opacity="0.04" stroke="#7f89e0" stroke-opacity="0.35"/>
<rect x="904.5" y="52" width="6" height="6" rx="2" fill="#7f89e0"/>
<text x="916.5" y="59" font-family="ui-monospace, SFMono-Regular, Menlo, monospace" font-size="10" font-weight="700" letter-spacing="1" fill="#7f89e0">IMPLEMENT</text>
<rect x="904.5" y="122" width="104" height="32" rx="7" fill="#1a2142" stroke="#7f89e0" stroke-opacity="0.45"/>
<rect x="912.5" y="131" width="62" height="4" rx="2" fill="#7f89e0" fill-opacity="0.55"/><rect x="912.5" y="141" width="34" height="4" rx="2" fill="#8d95ad" fill-opacity="0.45"/>
<rect x="1036.0" y="40" width="124" height="220" rx="12" fill="#ffffff" fill-opacity="0.04" stroke="#4ade80" stroke-opacity="0.35"/>
<rect x="1046.0" y="52" width="6" height="6" rx="2" fill="#4ade80"/>
<text x="1058.0" y="59" font-family="ui-monospace, SFMono-Regular, Menlo, monospace" font-size="10" font-weight="700" letter-spacing="1" fill="#4ade80">DONE</text>
<rect x="1046.0" y="80" width="104" height="32" rx="7" fill="#1a2142" stroke="#4ade80" stroke-opacity="0.45"/>
<rect x="1054.0" y="89" width="62" height="4" rx="2" fill="#4ade80" fill-opacity="0.55"/><rect x="1054.0" y="99" width="34" height="4" rx="2" fill="#8d95ad" fill-opacity="0.45"/>
<rect x="1046.0" y="122" width="104" height="32" rx="7" fill="#1a2142" stroke="#4ade80" stroke-opacity="0.45"/>
<rect x="1054.0" y="131" width="50" height="4" rx="2" fill="#4ade80" fill-opacity="0.55"/><rect x="1054.0" y="141" width="34" height="4" rx="2" fill="#8d95ad" fill-opacity="0.45"/>
<circle cx="996.5" cy="138" r="7" fill="#7f89e0" opacity="0.5" filter="url(#blur)"><animate attributeName="opacity" values="0.2;0.8;0.2" dur="1.6s" repeatCount="indefinite"/></circle>
<circle cx="996.5" cy="138" r="4" fill="#a5adf0"><animate attributeName="r" values="3;5;3" dur="1.6s" repeatCount="indefinite"/><animate attributeName="opacity" values="1;0.5;1" dur="1.6s" repeatCount="indefinite"/></circle>
<g><animateTransform attributeName="transform" type="translate" values="0.0 0;0.0 0;141.5 0;141.5 0;283.0 0;283.0 0;424.5 0;424.5 0;566.0 0;566.0 0" keyTimes="0;0.1;0.2;0.3;0.4;0.5;0.6;0.7;0.8;1" calcMode="spline" keySplines="0 0 1 1;0.5 0 0.2 1;0 0 1 1;0.5 0 0.2 1;0 0 1 1;0.5 0 0.2 1;0 0 1 1;0.5 0 0.2 1;0 0 1 1" dur="10s" repeatCount="indefinite"/>
<rect x="480" y="80" width="104" height="32" rx="7" fill="#232c5a" stroke="#a5adf0" stroke-width="1.5"/><rect x="480" y="80" width="104" height="32" rx="7" fill="none" stroke="#7f89e0" stroke-width="3" opacity="0.35" filter="url(#blur)"/>
<rect x="488" y="89" width="56" height="4" rx="2" fill="#e6e9fb"/><rect x="488" y="99" width="34" height="4" rx="2" fill="#8d95ad" fill-opacity="0.7"/>
</g>
</svg>
